<svg id="Layer_1" data-name="Layer 1" xmlns="http://www.w3.org/2000/svg" viewBox="0 0 593 593"><defs><style>.cls-1{fill:#1a1a1a;}.cls-2{fill:#fff;}</style></defs><title>alt</title><rect class="cls-1" width="593" height="593" rx="240"/><path class="cls-2" d="M600,420H437.5A72.48,72.48,0,0,1,510,347.5H672.5A72.48,72.48,0,0,1,600,420Z" transform="translate(-258.5 -209.5)"/><path class="cls-2" d="M524.52,542.24h-87A72.48,72.48,0,0,1,510,469.76h87A72.48,72.48,0,0,1,524.52,542.24Z" transform="translate(-258.5 -209.5)"/><path class="cls-2" d="M672.5,664.5H510A72.48,72.48,0,0,1,437.5,592H600A72.48,72.48,0,0,1,672.5,664.5Z" transform="translate(-258.5 -209.5)"/></svg>